# xmcd
#
# Track frame offsets: 
#        150
#        24497
#        47702
#        67640
#        86782
#        108972
#        127472
#        154890
#        174597
#        197047
#        215922
#        242747
#
# Disc length: 3410 seconds
#
# Revision: 0
# Processed by: cddbd v1.5.2PL0 Copyright (c) Steve Scherf et al.
# Submitted via: ExactAudioCopy v1.0b3
#
DISCID=ac0d500c
DTITLE=พงษ์สิทธิ์ คัมภีร์ - "ชีวิตกับเวลา" ๑
DYEAR=1900
DGENRE=Country
TTITLE0=ทุกยาม
TTITLE1=วันต่อวัน
TTITLE2=คิดถึง
TTITLE3=สุดใจ
TTITLE4=ยังคอย
TTITLE5=จะไปหา
TTITLE6=อยู่ตรงนี้
TTITLE7=มาตามสัญญา
TTITLE8=สู่หนใด
TTITLE9=พเนจร
TTITLE10=เสมอ
TTITLE11=ผีโรงเย็น
EXTD=
EXTT0=
EXTT1=
EXTT2=
EXTT3=
EXTT4=
EXTT5=
EXTT6=
EXTT7=
EXTT8=
EXTT9=
EXTT10=
EXTT11=
PLAYORDER=
